<?xml version="1.0" standalone="no"?>
<!DOCTYPE svg PUBLIC "-//W3C//DTD SVG 20010904//EN"
 "http://www.w3.org/TR/2001/REC-SVG-20010904/DTD/svg10.dtd">
<svg version="1.0" xmlns="http://www.w3.org/2000/svg"
 width="700.000000pt" height="700.000000pt" viewBox="0 0 700.000000 700.000000"
 preserveAspectRatio="xMidYMid meet">
<metadata>
Created by potrace 1.14, written by Peter Selinger 2001-2017
</metadata>
<g transform="translate(0.000000,700.000000) scale(0.100000,-0.100000)"
fill="#000000" stroke="none">
<path d="M3266 5832 c-113 -197 -206 -364 -206 -370 0 -10 364 -648 380 -665
6 -7 396 655 415 705 5 12 -51 119 -176 335 -100 175 -188 326 -194 336 -10
15 -41 -34 -219 -341z"/>
<path d="M3945 4653 c-110 -190 -204 -354 -208 -363 -7 -13 109 -220 458 -824
256 -445 469 -814 472 -822 4 -12 -231 -14 -1592 -16 l-1597 -3 -208 -360
-208 -360 1219 -3 c671 -1 1767 -1 2438 0 l1219 3 -889 1539 c-489 847 -892
1543 -896 1547 -5 5 -98 -148 -208 -338z"/>
<path d="M2313 4052 c-260 -450 -475 -825 -479 -835 -6 -16 50 -17 951 -17
907 0 957 1 951 18 -6 14 -886 1545 -935 1624 l-16 27 -472 -817z"/>
</g>
</svg>
